<svg width="26" height="27" viewBox="0 0 26 27" fill="none" xmlns="http://www.w3.org/2000/svg">
<path d="M12.3398 17.5156C11.7812 18.0742 10.918 18.0742 10.3594 17.5156L7.10938 14.2656C6.55078 13.707 6.55078 12.8438 7.10938 12.2852C7.66797 11.7266 8.53125 11.7266 9.08984 12.2852L11.375 14.5195L16.8594 9.03516C17.418 8.47656 18.2812 8.47656 18.8398 9.03516C19.3984 9.59375 19.3984 10.457 18.8398 11.0156L12.3398 17.5156ZM26 13.25C26 20.4609 20.1602 26.25 13 26.25C5.78906 26.25 0 20.4609 0 13.25C0 6.08984 5.78906 0.25 13 0.25C20.1602 0.25 26 6.08984 26 13.25ZM13 2.6875C7.16016 2.6875 2.4375 7.46094 2.4375 13.25C2.4375 19.0898 7.16016 23.8125 13 23.8125C18.7891 23.8125 23.5625 19.0898 23.5625 13.25C23.5625 7.46094 18.7891 2.6875 13 2.6875Z" fill="url(#paint0_linear_112_318)"/>
<defs>
<linearGradient id="paint0_linear_112_318" x1="-0.164679" y1="9.34651" x2="26.2852" y2="9.81254" gradientUnits="userSpaceOnUse">
<stop stop-color="#351EE0"/>
<stop offset="1" stop-color="#3F74EF"/>
</linearGradient>
</defs>
</svg>
